<svg viewBox="0 0 860 136" xmlns="http://www.w3.org/2000/svg"><path fill="#2650FF" d="M105.844 67.806a2.565 2.565 0 001.414-3.33L93.16 29.587a2.564 2.564 0 00-3.325-1.415l-9.062 3.661a2.56 2.56 0 00-1.415 3.33l14.099 34.89a2.564 2.564 0 003.325 1.414l9.062-3.66zM85.76 79.026c.987-.987.987-2.6 0-3.588L51.643 41.322a2.544 2.544 0 00-3.587 0l-6.938 6.937a2.544 2.544 0 000 3.588l34.118 34.116c.987.987 2.6.987 3.583 0l6.942-6.937zM71.264 96.988a2.567 2.567 0 00-1.415-3.33L34.954 79.561a2.56 2.56 0 00-3.325 1.414l-3.661 9.062a2.561 2.561 0 001.41 3.325l34.895 14.098c1.303.53 2.8-.107 3.33-1.41l3.661-9.062zM67.9.206c37.496 0 67.9 30.402 67.9 67.897 0 37.5-30.404 67.897-67.9 67.897C30.399 136 0 105.603 0 68.103 0 30.608 30.399.206 67.9.206zM429.584 0c1.74 0 1.988 1.215 1.677 2.586l-4.633 23.738c-.155 1.37-.943 1.677-2.217 1.677H413.25c-1.74 0-1.988-1.215-1.677-2.586l4.633-23.738c.156-1.37.938-1.677 2.217-1.677h11.162zm144.208 49.308c0 1.23-.758 1.828-2.124 1.828h-13.743c3.957 6.874 5.187 14.044 5.187 21.667 0 25.468-17.691 46.673-42.558 46.673-9.149 0-20.282-4.575-25.012-14.03-5.649 7.16-13.272 14.03-25.479 14.03-7.929 0-16.616-2.591-21.05-10.53-6.699 6.709-14.939 10.53-23.485 10.53-25.47 0-28.221-21.356-24.867-40.422l3.865-22.493c-6.101 3.175-15.134 3.175-20.03 2.061 1.226 4.57 1.673 9.144 1.673 13.719 0 24.559-13.719 47.135-40.715 47.135-9.465 0-19.679-4.424-24.404-14.186-5.032 8.843-14.798 14.186-24.716 14.186-7.467 0-15.702-4.128-19.83-12.353-6.864 8.993-17.229 12.353-25.624 12.353-17.691 0-25.008-10.982-25.008-27.919 0-4.418.603-9.144 1.527-14.335l7.175-39.668c.156-1.08.924-1.527 2.14-1.527h12.576c1.512 0 1.682 1.23 1.526 2.14l-7.248 39.516c-3.053 16.475-1.988 26.237 9.606 26.237 10.059 0 17.385-6.865 20.127-22.124l7.948-44.242c.15-1.08.919-1.527 2.14-1.527h12.576c1.507 0 1.677 1.23 1.521 2.14l-7.399 40.425c-1.833 9.611-3.359 25.177 8.391 25.177 8.376 0 13.72-8.39 17.23-27.16L329.43 1.576C329.587.51 330.588 0 331.571 0h12.58c.842 0 1.819.754 1.527 2.125L338.59 41.38c6.252-3.515 13.413-5.64 20.282-5.64 6.252 0 10.53 1.833 14.793 3.807 14.303 7.097 27.808 3.126 33.754-2.358.72-.73 1.536-1.162 2.596-1.162h12.353c2.027 0 2.29 1.371 1.983 2.907l-7.52 40.271c-2.28 11.137-2.13 24.564 9.761 24.564 9.918 0 16.476-10.073 19.524-26.086l5.046-25.643h-14.161c-1.522 0-2.446-.753-2.446-2.124V38.322c0-1.527.773-2.295 2.14-2.295h17.588l6.646-34.35c.15-1.37.938-1.677 2.216-1.677h12.285c1.74 0 1.984 1.216 1.678 2.587l-6.486 33.44h18.843c1.386 0 2.14.768 2.14 2.14v11.9c0 1.22-.754 1.973-1.984 1.973h-22.13l-5.357 27.165c-1.832 9.46-3.053 24.564 8.697 24.564 13.122 0 17.691-13.12 19.68-27.3 3.957-28.07 20.739-41.035 43.47-41.035h37.687c1.366 0 2.124.754 2.124 2.14v11.734zm-204.089 23.65c0-14.948-7.156-21.666-15.342-21.666-10.958 0-23.083 11.594-23.083 30.966 0 11.745 5.115 21.51 15.635 21.51 11.828 0 22.79-11.904 22.79-30.81zm176.783 0c0-14.948-7.473-21.666-16.019-21.666-11.439 0-24.098 11.594-24.098 30.966 0 11.745 5.342 21.51 16.325 21.51 12.348 0 23.792-11.904 23.792-30.81zM222.965 46.873l-5.79 8.993c-.768 1.074-1.833 1.23-2.742.617-5.036-2.897-11.133-6.869-20.14-6.869-8.392 0-14.182 2.742-14.182 8.085 0 4.88 1.677 6.407 15.858 12.362 15.26 6.407 22.577 12.046 22.577 25.624 0 17.986-14.798 23.79-30.812 23.79-6.714 0-20.438-.767-31.264-13.27l-3.199-3.666c-.496-.651-.773-1.065-.773-1.682 0-.603.311-1.215.773-1.677l8.688-7.623c.427-.379.918-.602 1.521-.602.462 0 1.075.145 1.527.758 6.864 8.084 13.884 12.207 22.727 12.207 9.762 0 14.04-2.601 14.04-8.235 0-4.278-1.833-6.408-13.272-11.288-17.093-7.175-24.716-12.518-24.716-26.698s11.901-23.942 30.812-23.942c9.305 0 18.912 3.048 27.764 9.3.91.612 1.216 1.37 1.216 1.983 0 .617-.307 1.22-.613 1.833zm402.791 25.884l-.053-24.811-12.3 20.534h-3.106l-12.3-20.218v24.495h-6.63V35.321h5.721l14.867 24.812 14.604-24.812h5.722l.053 37.436h-6.578zm48.392-18.718c0-7.647-5.615-13.16-13.155-13.16-7.54 0-13.16 5.513-13.16 13.16 0 7.646 5.62 13.154 13.16 13.154s13.155-5.508 13.155-13.154zm-33.32 0c0-11.07 8.556-19.256 20.165-19.256 11.604 0 20.16 8.133 20.16 19.256 0 11.122-8.556 19.25-20.16 19.25-11.61 0-20.166-8.181-20.166-19.25zm55.83-12.837h-12.406V35.32h31.77v5.882H703.61v31.554h-6.952V41.202zm55.779 12.837c0-7.647-5.615-13.16-13.155-13.16-7.54 0-13.16 5.513-13.16 13.16 0 7.646 5.62 13.154 13.16 13.154s13.155-5.508 13.155-13.154zm-33.32 0c0-11.07 8.556-19.256 20.165-19.256 11.604 0 20.16 8.133 20.16 19.256 0 11.122-8.556 19.25-20.16 19.25-11.61 0-20.166-8.181-20.166-19.25zm63.853-12.837h-8.128v14.92h8.128c6.097 0 9.252-2.781 9.252-7.487 0-4.7-3.155-7.433-9.252-7.433zm9.412 31.554l-7.647-10.966c-.481.058-.963.058-1.444.058h-8.45v10.908h-6.956V35.32h15.406c9.84 0 15.936 5.026 15.936 13.315 0 5.668-2.888 9.844-7.968 11.823l8.615 12.298h-7.492zm15.666.002V35.322H815v37.436h-6.952z" fill-rule="evenodd"/></svg>